# xmcd
#
# Track frame offsets: 
#        150
#        14437
#        32015
#        46215
#        65867
#        87112
#        102477
#        117892
#        133940
#        151677
#        166500
#        181527
#        199695
#        215055
#        232950
#        249435
#        266445
#        282687
#        293752
#        308450
#        317905
#        331335
#
# Disc length: 4699 seconds
#
# Revision: 8
# Processed by: cddbd v1.5.2PL0 Copyright (c) Steve Scherf et al.
# Submitted via: ExactAudioCopy v0.90b4
#
DISCID=31125916
DTITLE=Various Artist - The Very Best Of Adam And The Ants
DYEAR=1999
DGENRE=Rock
TTITLE0=Adam And The Ants - Stand And Deliver
TTITLE1=Adam And The Ants - Kings Of The Wild Frontier
TTITLE2=Adam And The Ants - Dog Eat Dog
TTITLE3=Adam Ant - Wonderful
TTITLE4=Adam Ant - Room At The Top
TTITLE5=Adam Ant - Apollo 9
TTITLE6=Adam And The Ants - Cartrouble
TTITLE7=Adam And The Ants - Friends
TTITLE8=Adam Ant - Desperate But Not Serious
TTITLE9=Adam And The Ants - Prince Charming
TTITLE10=Adam Ant - Goody Two Shoes
TTITLE11=Adam Ant - Puss 'n' Boots
TTITLE12=Adam Ant - Friend Or Foe
TTITLE13=Adam Ant - Strip
TTITLE14=Adam Ant - Vive Le Rock
TTITLE15=Adam And The Ants - Zerox
TTITLE16=Adam And The Ants - Antmusic
TTITLE17=Adam And The Ants - Deutscher Girls
TTITLE18=Adam And The Ants - Ant Rap
TTITLE19=Adam And The Ants - Kick
TTITLE20=Adam And The Ants - Young Parisians
TTITLE21=Adam Ant - Can't Set Rules About Love
EXTD=YEAR: 1999
EXTT0=
EXTT1=
EXTT2=
EXTT3=
EXTT4=
EXTT5=
EXTT6=
EXTT7=
EXTT8=
EXTT9=
EXTT10=
EXTT11=
EXTT12=
EXTT13=
EXTT14=
EXTT15=
EXTT16=
EXTT17=
EXTT18=
EXTT19=
EXTT20=
EXTT21=
PLAYORDER=
